<svg xmlns="http://www.w3.org/2000/svg" xmlns:xlink="http://www.w3.org/1999/xlink" role="img" width="190" height="39"
  viewBox="0 0 500 120">
  <g fill="#04a0e3">
    <path
      d="M72.96 109.99c-16.46-.05-29.58-14.31-27.85-29.95.44-3.94 1.93-7.6 3.57-11.17 6.17-13.43 14.48-25.53 23.28-37.32.49-.65.78-1.02 1.44-.12 9.71 13.14 19.06 26.47 25.21 41.78 6.2 15.44-4.01 32.66-19.97 36.15-1.98.43-3.99.71-5.68.63zm18.89-27.81c-.01-.27.01-1.03-.11-1.76-.17-1-.37-2.01-.7-2.96-4.03-11.58-10.87-21.59-17.64-31.64-.67-1-1.02-.42-1.43.2-6.24 9.35-12.38 18.77-16.66 29.24-1.03 2.52-1.8 5.1-1.68 7.88.44 10.16 8.99 18.26 19.23 18.21 10.2-.04 18.81-8.51 18.99-19.17z" />
    <path
      d="M103.53 9.17c13.75-.12 24.52 14.07 19.38 27.22-4.18 10.7-10.5 20.13-17.41 29.2-1.98 2.59-2.05 2.57-3.98-.06-5.97-8.14-11.67-16.45-15.99-25.63-2.76-5.87-3.84-11.78-1.16-18.02 3.31-7.71 10.78-12.72 19.16-12.71zm-.03 44.88c4.62-7.28 9.51-14.1 11.99-22.24.28-.91.39-1.86.28-2.81-.58-5.19-3.2-8.92-8.14-10.67-4.83-1.71-9.33-.73-12.91 2.95-3.51 3.6-4.45 7.91-2.56 12.73 2.8 7.11 7.01 13.41 11.34 20.04zM41.58 9.17c14.31.03 24.24 14.45 19.43 27.05-3.44 9.01-8.61 16.99-14.06 24.84-1.39 2-2.87 3.94-4.31 5.9-.47.64-.85 1.25-1.62.21-7.19-9.6-14.2-19.28-18.79-30.5-5.32-13.01 5.13-27.62 19.35-27.5zm.18 44.86c4.66-7.25 9.5-14.09 12.01-22.22.2-.63.3-1.34.26-2-.33-5.26-2.81-9.19-7.67-11.25-4.73-2-9.25-1.14-12.99 2.36-3.74 3.51-4.89 7.86-3.04 12.77 2.73 7.27 7.03 13.65 11.43 20.34z" />
    <path
      d="M24.67 98.61c-11.2 0-18.94-10.97-15.04-21.48 2.88-7.76 7.63-14.46 12.47-21.08 2.55-3.48 2.6-3.48 5.1-.08 4.57 6.23 8.94 12.59 11.99 19.74 1.47 3.43 2.19 6.95 1.26 10.69-1.81 7.25-8.19 12.21-15.78 12.21zm.06-8.46c5.16-.03 8.84-4.82 7.31-9.77-1.42-4.57-4.11-8.51-6.72-12.47-.53-.8-.88-.6-1.3.08-2.46 3.9-4.95 7.79-6.53 12.14-1.85 5.03 1.83 10.05 7.24 10.02zM120.73 98.61c-11.07.03-18.86-11.36-15.21-20.96 2.23-5.87 5.45-11.17 8.95-16.32 1.75-2.57 3.64-5.05 5.46-7.57.5-.69.9-1.15 1.64-.15 5.48 7.41 11.01 14.79 14.26 23.52 4 10.73-3.64 21.52-15.1 21.48zm.07-31.64c-2.9 4.54-5.73 8.82-7.37 13.72-.99 2.95.25 6.17 2.84 8.04 2.62 1.89 6.31 1.92 8.96.08 2.68-1.86 3.93-5.15 2.94-8.21-1.59-4.87-4.33-9.12-7.37-13.63z" />
    <path
      d="M71.44 98.61c-1.44.08-2.68-.28-2.75-1.96-.06-1.66 1.11-2.05 2.58-2.15 7.85-.58 13.15-5.9 13.69-13.72.1-1.44.51-2.62 2.19-2.58 1.53.04 2.03 1.11 2.02 2.51-.04 9.18-8.53 17.76-17.73 17.9z" />
  </g>
  <g fill="#595958">
    <path
      d="M314.45 54.36c-.09 7.99-2.26 14.83-8.81 19.43-13.81 9.69-32.33 1.09-33.89-15.69-.67-7.24.35-14.13 5.65-19.65 6.71-6.99 15.02-7.7 23.65-5 8.35 2.62 12.19 9.16 13.21 17.56.14 1.2.14 2.43.19 3.35zm-10.74.19c-.02-3.46-.7-6.73-2.76-9.59-3.96-5.51-12.76-5.31-16.18.53-3.4 5.81-3.38 11.88-.33 17.84 1.75 3.41 4.84 4.78 8.57 4.76 3.72-.01 6.73-1.4 8.6-4.76 1.52-2.72 2.13-5.68 2.1-8.78zM190.27 54.79c0-5.42-.01-10.84 0-16.26.01-4.01 1.71-5.71 5.66-5.72 3.86-.01 7.72-.04 11.58.01 10.1.14 18.52 7.81 19.68 17.85.91 7.89-.76 14.95-6.63 20.65-3.51 3.4-7.76 5.14-12.64 5.23-4.13.07-8.26.05-12.39.01-3.43-.04-5.24-1.86-5.26-5.31-.03-5.48 0-10.97 0-16.46zm14.3-13.09c-.97 0-1.53.09-2.05-.02-2.19-.43-2.53.62-2.48 2.55.12 5.76.04 11.52.04 17.28 0 5.98 0 5.98 5.98 5.72 5.08-.22 8.75-3.16 9.9-8.03.77-3.28.74-6.59.01-9.87-.75-3.37-2.9-5.58-6.02-6.91-1.87-.79-3.84-.75-5.38-.72z" />
    <path
      d="M255.76 58.91c3.12 3.31 5.96 6.48 8.97 9.47 2.36 2.35 2.78 4.67.88 6.67-2.14 2.25-5.98 2.39-7.98.11-2.4-2.75-4.63-5.65-6.93-8.49-1.91-2.35-3.82-4.71-5.73-7.07-.79.35-.47.98-.47 1.43-.03 3.45.02 6.91-.03 10.36-.05 3.49-1.84 5.35-5 5.34-3.23-.01-4.98-1.75-4.99-5.32-.05-11.24-.04-22.48-.01-33.71.01-2.59 1.59-4.73 4.04-4.78 5.6-.13 11.25-.66 16.81.33 5.57.99 9.32 4.95 10.35 10.38 1.05 5.56-1 10.6-5.41 13.46-1.27.84-2.7 1.23-4.5 1.82zm-10.84-12.19c0 1.28-.01 2.56 0 3.85 0 .55.01 1.18.77 1.16 2.49-.07 5.01.41 7.45-.36 2.26-.72 3.52-2.88 3.2-5.23-.32-2.37-2.08-4-4.5-4.14-.74-.04-1.48-.02-2.23-.02-4.69-.02-4.69-.02-4.69 4.74zM424.71 59.16c0 4.44.05 8.29-.01 12.13-.06 3.66-2.02 5.6-5.34 5.46-2.71-.12-4.37-1.69-4.64-4.42-.06-.61-.05-1.22-.05-1.83 0-10.64-.01-21.28 0-31.91 0-4.11 1.68-5.77 5.8-5.78 3.93-.01 7.86-.06 11.79.02 8.59.17 14.01 5.87 13.82 14.42-.12 5.39-3.53 9.44-9.84 11.61.5 1.14 1.47 1.89 2.28 2.73 2.39 2.48 4.51 5.22 7.19 7.43 1.66 1.37 1.7 3.94.39 5.71-1.61 2.18-6.34 3.16-8.85-.12-3.62-4.73-7.47-9.29-11.22-13.92-.29-.35-.6-.69-1.32-1.53zm4.58-17.19c-1.02 0-2.03.03-3.05-.01-.79-.03-1.07.31-1.06 1.07.02 2.57.01 5.14 0 7.72 0 .64.2 1.03.93 1 2.16-.1 4.34.25 6.48-.21 2.76-.59 4.2-2.56 3.93-5.29-.25-2.53-2.09-4.19-4.79-4.29-.82-.02-1.63.01-2.44.01zM452.68 48.83c0-3.79-.07-7.59.02-11.38.09-3.64 2.07-5.35 5.6-5.06 2.86.24 4.39 2.01 4.4 5.28.03 6.84-.02 13.69.02 20.53.04 6.52 4.49 10.28 10.91 9.29 4.52-.7 7.27-4.06 7.3-9.07.04-6.91-.02-13.82.03-20.74.03-3.83 2.54-5.78 6.14-4.91 2.21.53 3.6 2.09 3.59 4.56-.06 8.12.45 16.26-.35 24.37-.76 7.69-6.15 13.67-14.02 15.06-7.18 1.27-13.96.4-19.21-5.43-3.15-3.5-4.39-7.71-4.43-12.33-.03-3.4 0-6.79 0-10.17zM371.16 77.23c-4.33-.07-8.52-.74-12.23-3.12-2.83-1.81-3.37-4.62-1.55-7.35 1.14-1.71 2.68-2.5 4.7-1.92 1.95.56 3.84 1.3 5.79 1.88 2.36.71 4.76 1.26 7.07-.17 2.62-1.62 2.58-4.63-.09-6.18-1.71-.99-3.6-1.55-5.46-2.18-1.73-.58-3.45-1.2-5.16-1.84-4.26-1.6-6.77-4.59-7.13-9.21-.39-4.95.64-9.5 5-12.35 6.35-4.16 13.16-4.14 19.93-.98 2.7 1.26 3.73 4.16 2.74 6.46-.98 2.29-3.41 3.24-6.36 2.45-1.9-.5-3.78-1.08-5.76-1.16-1.16-.05-2.31.02-3.37.57-1.11.57-1.76 1.42-1.72 2.75.03 1.23.57 2.09 1.69 2.53 1.82.72 3.68 1.36 5.51 2.06 1.77.68 3.53 1.37 5.29 2.08 4.49 1.83 7.46 4.88 7.75 9.96.29 5.27-1.21 9.74-5.78 12.86-3.33 2.23-7 2.84-10.86 2.86zM320.35 54.68c0-5.48-.01-10.97 0-16.45.01-3.59 1.78-5.39 5.35-5.41 4.06-.02 8.13-.17 12.18.05 6.09.33 11.22 2.82 13.62 8.64 2.39 5.8 1.71 11.57-2.48 16.58-2.52 3-5.9 4.2-9.71 4.32-2.5.08-5.01.06-7.51.01-1.05-.02-1.43.32-1.41 1.39.06 2.5.04 5.01.01 7.51-.05 3.52-1.91 5.46-5.15 5.42-3.18-.04-4.86-1.84-4.88-5.42-.04-5.54-.01-11.09-.02-16.64zm10.24-7.27c0 1.63.02 3.25-.01 4.88-.01.82.21 1.27 1.14 1.24 2.03-.06 4.07.04 6.09-.12 2.24-.18 3.83-1.79 4.42-4.16.65-2.56-.05-5.32-1.85-6.44-2.91-1.82-6.19-.93-9.32-1.06-1.01 1.75-.23 3.65-.48 5.47 0 .06.01.12.01.19zM167 33.03c2.44 0 4.88-.03 7.32.01 3.36.06 5.04 1.68 5.01 4.77-.03 2.83-1.71 4.32-4.95 4.34-3.25.03-6.51.08-9.75-.03-1.31-.04-1.87.41-1.93 1.64 0 .07-.03.13-.04.2-.64 3.38-.64 3.38 2.72 3.2 9.82-.52 16.51 8.63 13.61 18.62-2.54 8.79-11.59 13.52-21.05 11.01-2.24-.59-4.39-1.37-6.21-2.88-2.21-1.83-3.05-4.55-2.06-6.66 1.15-2.43 3.43-3.38 5.9-2.32 1.68.72 3.26 1.65 4.92 2.41 3.05 1.38 5.85.76 7.42-1.57 1.9-2.82 1.82-7.01-.25-9.08-1.33-1.33-2.95-1.93-4.82-1.29-1.6.55-3.17 1.19-4.77 1.74-2.84.97-5.28-.56-5.12-3.55.3-5.88 1.01-11.73 2.14-17.52.38-1.93 1.65-2.91 3.59-2.95 2.78-.05 5.55-.01 8.33-.01-.01-.04-.01-.06-.01-.08z" />

    <path
      d="M400.94 77.45c-2.81-.02-5.3-2.59-5.22-5.39.08-2.9 2.52-5.34 5.33-5.34 2.98 0 5.42 2.43 5.43 5.42.02 2.89-2.54 5.33-5.54 5.31z" />
  </g>



</svg>