<svg xmlns="http://www.w3.org/2000/svg" width="193" height="40"><path fill="#fff" d="M0 0h193v40H0z"/><path fill="#04A0E3" d="M25.65 39.72c-6.56-.02-11.79-5.64-11.1-11.8.18-1.55.77-3 1.42-4.4 2.46-5.3 5.78-10.06 9.29-14.7.2-.26.3-.4.57-.05 3.87 5.18 7.6 10.43 10.05 16.46 2.47 6.08-1.6 12.86-7.96 14.24-.8.17-1.6.28-2.27.25Zm7.53-10.96c0-.1 0-.4-.04-.7a7.2 7.2 0 0 0-.28-1.16c-1.6-4.56-4.33-8.5-7.03-12.46-.27-.4-.4-.17-.57.08-2.49 3.68-4.94 7.4-6.64 11.52-.41.99-.72 2-.67 3.1a7.6 7.6 0 0 0 7.66 7.17 7.67 7.67 0 0 0 7.57-7.55ZM37.84 0c5.48-.05 9.78 5.54 7.73 10.72-1.67 4.22-4.19 7.93-6.94 11.5-.8 1.03-.82 1.02-1.6-.02a61.48 61.48 0 0 1-6.37-10.1c-1.1-2.3-1.53-4.63-.46-7.1a8.3 8.3 0 0 1 7.64-5Zm-.01 17.68c1.84-2.87 3.79-5.55 4.78-8.76.11-.36.15-.73.11-1.1a4.68 4.68 0 0 0-3.24-4.21 4.66 4.66 0 0 0-5.15 1.16A4.37 4.37 0 0 0 33.3 9.8c1.11 2.8 2.8 5.28 4.52 7.89ZM13.14 0c5.7.01 9.67 5.7 7.75 10.66-1.37 3.55-3.43 6.69-5.6 9.78-.56.79-1.15 1.55-1.72 2.33-.19.25-.34.49-.65.08-2.87-3.78-5.66-7.6-7.49-12.02C3.31 5.71 7.48-.05 13.14 0Zm.08 17.67C15.07 14.82 17 12.12 18 8.92c.08-.25.12-.53.1-.79a4.8 4.8 0 0 0-3.05-4.43 4.6 4.6 0 0 0-5.18.93 4.32 4.32 0 0 0-1.21 5.03c1.09 2.86 2.8 5.38 4.56 8.01ZM6.4 35.23a6.28 6.28 0 0 1-6-8.46c1.16-3.05 3.05-5.7 4.98-8.3 1.02-1.37 1.04-1.37 2.03-.03a39.47 39.47 0 0 1 4.78 7.77 6.4 6.4 0 0 1 .5 4.21 6.39 6.39 0 0 1-6.29 4.81Zm.03-3.33a2.97 2.97 0 0 0 2.91-3.85c-.56-1.8-1.64-3.35-2.68-4.91-.2-.31-.35-.24-.52.03-.98 1.54-1.97 3.07-2.6 4.78-.74 1.99.73 3.96 2.89 3.95Zm38.27 3.33c-4.42.02-7.52-4.47-6.07-8.25.9-2.32 2.18-4.4 3.57-6.43.7-1.01 1.45-2 2.18-2.98.2-.28.36-.46.65-.06 2.19 2.92 4.4 5.82 5.69 9.26 1.6 4.23-1.45 8.48-6.02 8.46Zm.03-12.46c-1.16 1.79-2.29 3.47-2.94 5.4-.4 1.17.1 2.44 1.13 3.17 1.04.75 2.52.76 3.57.03a2.86 2.86 0 0 0 1.17-3.23c-.63-1.92-1.72-3.6-2.93-5.37Z"/><path fill="#04A0E3" d="M25.05 35.23c-.58.04-1.07-.1-1.1-.77-.02-.65.44-.8 1.03-.84a5.59 5.59 0 0 0 5.46-5.41c.04-.57.2-1.03.87-1.02.61.02.81.44.8 1-.01 3.6-3.4 6.99-7.06 7.04Z"/><path fill="#595958" d="M121.69 17.47c-.04 3.15-.9 5.85-3.51 7.66a8.55 8.55 0 0 1-13.51-6.18c-.27-2.86.14-5.57 2.25-7.74 2.67-2.76 5.99-3.04 9.43-1.97 3.33 1.03 4.86 3.6 5.26 6.91.06.48.06.96.08 1.32Zm-4.28.08c-.01-1.36-.28-2.65-1.1-3.78-1.58-2.17-5.09-2.1-6.45.2a6.89 6.89 0 0 0-.13 7.04c.7 1.34 1.93 1.88 3.41 1.87 1.49 0 2.69-.55 3.43-1.87.6-1.07.85-2.24.84-3.46Zm-45.22.1v-6.41c0-1.58.68-2.25 2.25-2.26h4.62a8 8 0 0 1 7.84 7.04c.37 3.1-.3 5.89-2.64 8.13a7.25 7.25 0 0 1-5.04 2.06c-1.64.03-3.3.02-4.94 0-1.36 0-2.09-.72-2.1-2.08v-6.49Zm5.7-5.16c-.39 0-.61.03-.82-.01-.87-.17-1 .24-.99 1 .05 2.27.02 4.54.02 6.81 0 2.36 0 2.36 2.38 2.25a4 4 0 0 0 3.95-3.16c.3-1.3.3-2.6 0-3.89a3.77 3.77 0 0 0-2.4-2.72c-.74-.31-1.53-.3-2.14-.28ZM98.3 19.27c1.24 1.3 2.37 2.55 3.57 3.73.94.92 1.1 1.84.35 2.62-.85.89-2.38.95-3.18.05-.96-1.09-1.85-2.23-2.76-3.35l-2.29-2.78c-.31.14-.19.38-.19.56v4.08c-.03 1.38-.74 2.11-2 2.1-1.29 0-1.99-.68-1.99-2.09-.02-4.43-.02-8.86 0-13.28 0-1.02.63-1.86 1.6-1.88 2.24-.05 4.5-.26 6.7.13a4.94 4.94 0 0 1 4.13 4.09 4.97 4.97 0 0 1-2.15 5.3c-.5.33-1.08.48-1.8.72Zm-4.33-4.8v1.51c0 .22 0 .47.3.46 1-.03 2 .16 2.98-.14.9-.29 1.4-1.14 1.27-2.06a1.84 1.84 0 0 0-1.79-1.64h-.89c-1.87-.01-1.87-.01-1.87 1.86Zm71.68 4.9v4.77c-.03 1.44-.81 2.2-2.14 2.15-1.08-.04-1.74-.66-1.85-1.74-.02-.24-.02-.48-.02-.72V11.26c0-1.62.67-2.27 2.32-2.28 1.56 0 3.13-.02 4.7.01 3.42.07 5.58 2.31 5.5 5.68-.04 2.13-1.4 3.72-3.92 4.58.2.45.59.74.91 1.07.95.98 1.8 2.06 2.87 2.93.66.54.67 1.55.15 2.25-.64.86-2.52 1.24-3.53-.05-1.44-1.86-2.97-3.66-4.47-5.48l-.52-.6Zm1.82-6.78h-1.22c-.31-.01-.42.12-.42.42v3.04c0 .25.08.4.37.4.86-.04 1.73.1 2.59-.09 1.1-.23 1.67-1 1.56-2.08-.1-1-.83-1.65-1.9-1.7l-.98.01Zm9.32 2.7c0-1.49-.02-2.99.01-4.48.04-1.43.83-2.1 2.24-2 1.14.1 1.75.8 1.75 2.09v8.09c.02 2.56 1.8 4.05 4.36 3.66 1.8-.28 2.9-1.6 2.9-3.58.02-2.72 0-5.44.02-8.17.01-1.5 1.01-2.27 2.45-1.93.88.2 1.43.82 1.43 1.8-.03 3.2.18 6.4-.14 9.6a6.59 6.59 0 0 1-5.6 5.93c-2.85.5-5.56.16-7.65-2.14a7.01 7.01 0 0 1-1.77-4.86v-4Zm-32.5 11.2a9.11 9.11 0 0 1-4.87-1.24c-1.13-.7-1.34-1.82-.62-2.9.46-.67 1.07-.98 1.88-.75.78.22 1.53.51 2.3.74.95.28 1.9.5 2.82-.06 1.05-.64 1.03-1.83-.03-2.44-.68-.39-1.44-.61-2.18-.86-.69-.23-1.37-.47-2.06-.72-1.7-.63-2.7-1.81-2.84-3.63-.15-1.95.26-3.74 2-4.87 2.53-1.63 5.24-1.63 7.94-.38 1.08.5 1.49 1.64 1.1 2.54-.4.9-1.37 1.28-2.54.97-.76-.2-1.5-.43-2.3-.46-.46-.02-.92 0-1.34.23-.45.22-.7.55-.69 1.08.01.48.23.82.68 1 .72.28 1.46.53 2.2.8l2.1.83c1.8.72 2.97 1.92 3.1 3.92.1 2.08-.5 3.84-2.31 5.07a7.62 7.62 0 0 1-4.33 1.12Zm-20.25-8.9v-6.47c0-1.42.71-2.12 2.13-2.13 1.62-.01 3.25-.07 4.86.02 2.43.13 4.47 1.1 5.43 3.4a6 6 0 0 1-.99 6.53 5.02 5.02 0 0 1-3.87 1.7c-1 .04-2 .03-3 0-.41 0-.56.13-.56.56.03.98.02 1.97 0 2.95-.01 1.4-.75 2.16-2.04 2.14-1.27-.02-1.94-.73-1.95-2.14-.02-2.18 0-4.36 0-6.55Zm4.08-2.85v1.92c0 .32.08.5.45.49.81-.03 1.63.01 2.43-.05.9-.07 1.53-.7 1.76-1.64.26-1-.02-2.1-.73-2.54-1.16-.71-2.47-.36-3.72-.41-.4.69-.09 1.43-.19 2.15v.08ZM62.91 9.07h2.92c1.34.03 2 .67 2 1.88-.02 1.12-.69 1.7-1.98 1.71-1.3.02-2.6.03-3.89 0-.52-.02-.74.15-.77.64l-.01.08c-.26 1.33-.26 1.33 1.08 1.26 3.92-.2 6.58 3.4 5.43 7.33-1.01 3.46-4.62 5.33-8.4 4.34a6.27 6.27 0 0 1-2.47-1.14c-.88-.72-1.21-1.79-.82-2.62.46-.96 1.37-1.33 2.35-.91.67.28 1.3.65 1.96.95 1.22.54 2.34.3 2.96-.62.76-1.11.73-2.76-.1-3.58-.53-.52-1.17-.76-1.92-.5-.64.21-1.26.46-1.9.68-1.13.38-2.1-.22-2.04-1.4.12-2.32.4-4.62.85-6.9.15-.76.66-1.15 1.43-1.16 1.11-.02 2.21 0 3.32 0v-.04ZM156.17 26.57a2.15 2.15 0 0 1-2.08-2.12c.03-1.15 1-2.1 2.12-2.1 1.2 0 2.16.95 2.17 2.13 0 1.14-1.01 2.1-2.21 2.09Z"/></svg>